<?xml version="1.0" standalone="no"?>
<!DOCTYPE svg PUBLIC "-//W3C//DTD SVG 20010904//EN"
  "http://www.w3.org/TR/2001/REC-SVG-20010904/DTD/svg10.dtd">
<svg version="1.0" xmlns="http://www.w3.org/2000/svg"
  width="250.000000pt" height="250.000000pt" viewBox="0 0 250.000000 250.000000"
  preserveAspectRatio="xMidYMid meet">

<g transform="translate(0.000000,250.000000) scale(0.100000,-0.100000)"
fill="#000000" stroke="none">
<path d="M0 1250 l0 -1250 1250 0 1250 0 0 1250 0 1250 -1250 0 -1250 0 0
-1250z m613 541 c30 -15 58 -38 75 -64 25 -37 27 -50 31 -164 l3 -123 -86 0
-86 0 0 106 c0 58 -5 114 -10 125 -36 66 -184 61 -210 -7 -7 -17 -10 -164 -8
-405 l3 -378 23 -23 c18 -19 33 -23 83 -23 56 0 63 3 90 33 l29 32 0 135 0
135 -50 0 -50 0 0 50 0 50 135 0 135 0 0 -260 0 -260 -65 0 c-61 0 -65 1 -65
23 0 40 -15 51 -33 24 -38 -58 -168 -85 -272 -56 -51 14 -110 73 -124 124 -7
26 -11 174 -11 420 0 375 0 381 23 425 44 87 106 111 272 107 103 -2 127 -6
168 -26z m454 -126 c24 -77 51 -164 59 -194 l16 -54 62 194 62 194 82 3 c45 2
82 1 82 -2 0 -3 -5 -17 -11 -33 -6 -15 -53 -154 -105 -307 l-94 -279 0 -218 0
-219 -85 0 -85 0 0 222 0 222 -95 293 c-53 161 -98 300 -102 309 -5 13 7 14
83 12 l88 -3 43 -140z m731 103 c6 -24 45 -189 87 -368 42 -179 78 -326 80
-328 1 -2 21 72 43 165 22 92 61 259 88 371 l48 202 108 0 108 0 0 -530 0
-530 -80 0 -80 0 -2 388 -3 387 -83 -380 c-45 -209 -82 -383 -82 -387 0 -5
-28 -8 -63 -8 l-63 0 -84 391 -85 391 -3 -391 -2 -391 -80 0 -80 0 0 530 0
530 109 0 109 0 10 -42z"/>
</g>
</svg>
